<?xml version="1.0" standalone="no"?><svg xmlns="http://www.w3.org/2000/svg" viewBox="0 0 1440 320"><path fill="#e8505b" fill-opacity="1" d="M0,320L0,192L48,192L48,32L96,32L96,288L144,288L144,224L192,224L192,288L240,288L240,64L288,64L288,96L336,96L336,288L384,288L384,192L432,192L432,224L480,224L480,160L528,160L528,224L576,224L576,192L624,192L624,96L672,96L672,96L720,96L720,96L768,96L768,288L816,288L816,64L864,64L864,192L912,192L912,128L960,128L960,160L1008,160L1008,192L1056,192L1056,64L1104,64L1104,256L1152,256L1152,160L1200,160L1200,32L1248,32L1248,128L1296,128L1296,288L1344,288L1344,64L1392,64L1392,64L1440,64L1440,320L1392,320L1392,320L1344,320L1344,320L1296,320L1296,320L1248,320L1248,320L1200,320L1200,320L1152,320L1152,320L1104,320L1104,320L1056,320L1056,320L1008,320L1008,320L960,320L960,320L912,320L912,320L864,320L864,320L816,320L816,320L768,320L768,320L720,320L720,320L672,320L672,320L624,320L624,320L576,320L576,320L528,320L528,320L480,320L480,320L432,320L432,320L384,320L384,320L336,320L336,320L288,320L288,320L240,320L240,320L192,320L192,320L144,320L144,320L96,320L96,320L48,320L48,320L0,320L0,320Z"></path></svg>